# xmcd CD database file
#
# Track frame offsets:
#	150
#	15630
#	31620
#	47055
#
# Disc length: 839 seconds
#
# Revision: 1
# Processed by: cddbd v1.5.2PL0 Copyright (c) Steve Scherf et al.
# Submitted via: CDex 1.70beta2
#
DISCID=22034504
DTITLE=小沢健二 - 痛快ウキウキ通り
DYEAR=1995
DGENRE=JPop
TTITLE0=痛快ウキウキ通り
TTITLE1=流れ星ビバップ
TTITLE2=痛快ウキウキ通り(オリジナルカラオケ)
TTITLE3=流れ星ビバップ(オリジナルカラオケ)
EXTD=YEAR: 1995
EXTT0=
EXTT1=
EXTT2=
EXTT3=
PLAYORDER=
